<?xml version="1.0" encoding="UTF-8" standalone="no"?>
<!-- Created with Inkscape (http://www.inkscape.org/) -->
<svg
   xmlns:dc="http://purl.org/dc/elements/1.1/"
   xmlns:cc="http://creativecommons.org/ns#"
   xmlns:rdf="http://www.w3.org/1999/02/22-rdf-syntax-ns#"
   xmlns:svg="http://www.w3.org/2000/svg"
   xmlns="http://www.w3.org/2000/svg"
   xmlns:sodipodi="http://sodipodi.sourceforge.net/DTD/sodipodi-0.dtd"
   xmlns:inkscape="http://www.inkscape.org/namespaces/inkscape"
   width="800"
   height="900"
   id="svg2"
   sodipodi:version="0.32"
   inkscape:version="0.46"
   version="1.0"
   sodipodi:docname="dessin.svg"
   inkscape:output_extension="org.inkscape.output.svg.inkscape">
  <defs
     id="defs4">
    <inkscape:perspective
       sodipodi:type="inkscape:persp3d"
       inkscape:vp_x="0 : 526.18109 : 1"
       inkscape:vp_y="0 : 1000 : 0"
       inkscape:vp_z="744.09448 : 526.18109 : 1"
       inkscape:persp3d-origin="372.04724 : 350.78739 : 1"
       id="perspective10" />
    <inkscape:perspective
       id="perspective2447"
       inkscape:persp3d-origin="372.04724 : 350.78739 : 1"
       inkscape:vp_z="744.09448 : 526.18109 : 1"
       inkscape:vp_y="0 : 1000 : 0"
       inkscape:vp_x="0 : 526.18109 : 1"
       sodipodi:type="inkscape:persp3d" />
  </defs>
  <sodipodi:namedview
     id="base"
     pagecolor="#ffffff"
     bordercolor="#666666"
     borderopacity="1.0"
     inkscape:pageopacity="0.0"
     inkscape:pageshadow="2"
     inkscape:zoom="0.56333333"
     inkscape:cx="722.18935"
     inkscape:cy="378.99408"
     inkscape:document-units="px"
     inkscape:current-layer="layer1"
     showgrid="false"
     inkscape:window-width="1024"
     inkscape:window-height="712"
     inkscape:window-x="-4"
     inkscape:window-y="-4" />
  <metadata
     id="metadata7">
    <rdf:RDF>
      <cc:Work
         rdf:about="">
        <dc:format>image/svg+xml</dc:format>
        <dc:type
           rdf:resource="http://purl.org/dc/dcmitype/StillImage" />
      </cc:Work>
    </rdf:RDF>
  </metadata>
  <g
     inkscape:label="Calque 1"
     inkscape:groupmode="layer"
     id="layer1"
     transform="translate(-8.4057695,-130.09403)">
    <g
       id="g3366">
      <path
         id="path3266"
         d="M 478.01418,861.74825 C 477.85309,859.8584 477.69695,857.94504 477.90227,856.37653 C 478.14177,854.54671 478.71056,853.02848 479.91666,852.12392 C 481.70246,850.78454 482.03322,848.14789 482.93824,844.96164 C 483.39076,843.36854 484.00037,841.69331 484.95264,839.92566 C 485.90489,838.15802 487.27325,836.30473 489.20524,834.55396 C 491.12742,832.81206 493.2211,830.66831 495.47223,829.07034 C 497.72338,827.47236 500.1304,826.44336 502.63451,826.72022 C 505.05257,826.98751 507.44994,826.26834 510.13254,825.26537 C 512.81513,824.26239 515.77465,822.95954 519.08538,822.13188 C 523.79647,820.95407 528.26613,818.49273 531.95511,816.64825 C 534.47677,815.38748 535.61662,814.60901 536.76726,813.51476 C 537.91791,812.4205 539.05956,811.03969 541.46751,808.81451 C 536.63339,800.52019 540.70086,805.68609 537.77447,801.54032 C 535.45349,798.25219 535.16996,796.36188 531.39556,792.58746 C 529.57842,790.77032 529.03397,788.27388 528.59778,785.42518 C 528.1616,782.57649 527.90247,779.37198 526.69531,776.1366 C 525.60188,773.20597 524.8415,768.93804 524.68092,764.83362 C 524.52034,760.7292 524.95569,756.78604 526.02384,754.64976 C 531.86257,754.31542 537.2947,754.76056 542.81043,754.98549 C 548.32618,755.21043 553.88755,755.26367 559.70895,754.09021 C 558.35044,749.43468 556.1662,745.18226 553.66577,741.10857 C 551.16534,737.03487 548.29661,733.13463 545.4963,729.24604 C 542.69599,725.35745 540.03266,721.48367 537.77447,717.38351 C 535.51627,713.28336 533.72448,708.99846 532.85039,704.28996 C 532.29503,701.29836 531.09721,699.28999 529.38116,698.02297 C 527.66512,696.75596 525.4335,696.2324 522.77843,696.2324 C 516.49661,696.23237 511.32297,695.63471 505.65611,694.21801 C 502.42627,693.4106 499.92635,691.29673 497.59854,688.95821 C 495.27072,686.61969 493.11896,684.05975 490.54818,682.13166 C 488.32561,680.46471 485.34917,679.16931 482.15487,678.32669 C 478.96057,677.4841 475.55325,677.09568 472.41865,677.09568 C 466.7097,677.09565 461.00527,677.09568 455.29631,677.09568 C 449.24046,677.09565 449.14668,679.44581 442.76233,679.44581 C 440.06361,679.44584 437.34961,680.92872 435.04049,682.91503 C 432.73137,684.90135 430.84991,687.34609 429.55688,689.07012 C 426.70203,692.87667 423.22323,695.40376 420.4921,698.13488 C 419.6524,698.97458 418.40218,699.47333 416.91097,699.81355 C 415.41975,700.15375 413.67545,700.33937 411.87499,700.3731 C 408.27404,700.4406 404.36358,700.03737 401.5792,700.03737 C 396.43154,700.03748 391.60089,698.18628 387.8142,697.23959 C 386.55733,696.92538 385.83705,696.29847 385.35217,695.67285 C 384.86728,695.04722 384.51003,694.33551 384.12115,693.65846 C 383.73227,692.9814 383.29946,692.44832 382.33059,691.97979 C 381.3617,691.51128 379.96713,691.19642 377.74225,691.19642 C 375.31961,691.19642 373.1696,689.78048 371.47525,687.95102 C 369.7809,686.12155 368.43303,683.88098 367.55837,682.13166 C 367.1098,681.23448 366.30486,680.5863 365.20825,680.22918 C 364.11164,679.87207 362.80638,679.80911 361.40328,679.78154 C 358.59711,679.72638 355.44026,680.11727 353.45763,680.11727 C 347.67681,680.11734 343.52066,680.55338 340.36408,682.13166 C 338.46651,683.08045 336.13769,683.23608 333.64945,683.25077 C 331.1612,683.26545 328.51727,683.13885 326.26335,683.13885 C 324.8485,683.13885 323.85116,683.51609 323.01794,684.14605 C 322.18471,684.77602 321.51075,685.66445 321.00354,686.60809 C 319.98916,688.49531 319.44969,690.62397 318.20578,691.86788 C 315.40675,694.66698 310.89778,696.91164 309.14103,699.254 C 307.81528,701.02157 306.42995,702.22849 304.7765,703.28277 C 303.12306,704.33705 301.20411,705.23682 299.06906,706.30437 C 295.22625,708.22578 291.50236,712.60573 287.9899,714.36193 C 286.40235,715.15569 283.52946,715.11992 280.6038,714.92148 C 277.67816,714.72304 274.70373,714.36193 272.88197,714.36193 C 267.61805,714.36185 266.56212,713.20164 261.80282,712.0118 C 258.77228,711.25418 256.14508,711.16536 253.96907,712.0118 C 251.79307,712.85824 250.06567,714.64046 248.70928,717.38351 C 247.31872,720.19565 246.83161,721.84457 245.79959,722.97904 C 244.76759,724.11351 243.19304,724.73136 239.64451,725.44107 C 237.03404,725.96317 234.84961,726.74694 232.59414,727.45548 C 230.33866,728.16399 228.03919,728.7984 225.09613,728.7984 C 223.24768,728.7984 221.37343,729.62042 219.72441,730.9247 C 218.07541,732.22899 216.65613,733.93093 215.47182,735.96068 C 214.28749,737.99043 213.35221,740.2752 212.89786,742.4515 C 212.44353,744.62779 212.46888,746.75066 213.00977,748.49467 C 218.07437,764.82486 220.52272,774.17069 222.07455,782.85124 C 223.62636,791.53178 224.25517,799.55257 225.54377,813.0671 C 225.54055,813.11112 225.54681,813.24566 225.54377,813.29094 C 235.34105,816.56213 253.04965,819.07608 251.61895,812.17182 C 249.96984,804.2136 251.9978,800.69145 245.46386,786.65621 C 251.88188,782.91728 263.3156,783.12334 277.02267,779.60582 C 276.37082,786.76056 278.17433,789.6096 277.69413,796.84007 C 289.3395,797.81181 287.26316,797.81393 302.87403,797.62344 C 307.38447,797.56841 316.38932,783.04405 323.01794,775.35323 C 331.39298,779.69278 327.6596,780.24796 334.209,783.5227 C 328.94369,790.20389 327.82706,789.00152 321.33927,796.95198 C 325.19671,801.89417 334.28801,801.83054 350.21223,800.75695 C 358.73455,792.51795 370.49169,776.59964 378.63753,785.649 C 388.65284,796.75384 373.93613,801.32233 384.6807,821.90806 C 388.4841,829.195 394.83575,829.38833 403.4817,830.30135 C 404.36605,834.70716 402.66604,840.37332 408.07002,840.37332 C 419.88163,840.37332 426.69196,845.07352 435.71195,845.07355 C 442.58803,845.07355 447.90553,841.95581 457.1988,836.12071 C 461.44707,835.91271 461.8344,836.70601 465.25637,841.2686 C 471.58321,849.70441 469.02301,849.78599 471.97101,858.1671 C 473.10328,859.29939 475.62609,860.51425 478.01418,861.74825 z"
         style="fill:#fbb800;fill-opacity:1;fill-rule:evenodd;stroke:#000000;stroke-width:7;stroke-linecap:butt;stroke-linejoin:miter;stroke-miterlimit:4;stroke-dasharray:none;stroke-opacity:1" />
      <path
         id="path3269"
         d="M 554.44914,706.52819 C 552.51394,706.16839 550.40579,706.066 549.18934,704.84952 C 547.1602,702.82038 543.2236,700.67442 540.57222,698.02297 C 539.4846,696.93534 538.38458,695.56856 537.103,694.55374 C 535.82141,693.53891 534.34627,692.87509 532.40275,692.87509 C 529.4766,692.87509 528.32397,692.93614 527.92632,693.65846 C 527.56935,694.30689 527.7955,695.72002 527.7025,697.57533 C 528.20329,697.8048 528.94537,697.70121 529.38116,698.02297 C 531.09721,699.28999 532.29503,701.29836 532.85039,704.28996 C 533.72448,708.99846 535.51627,713.28336 537.77447,717.38351 C 540.03266,721.48367 542.69599,725.35745 545.4963,729.24604 C 548.29661,733.13463 551.16534,737.03487 553.66577,741.10857 C 556.1662,745.18226 558.35044,749.43468 559.70895,754.09021 C 553.88755,755.26367 548.32618,755.21043 542.81043,754.98549 C 537.2947,754.76056 531.86257,754.31542 526.02384,754.64976 C 524.95569,756.78604 524.52034,760.7292 524.68092,764.83362 C 524.8415,768.93804 525.60188,773.20597 526.69531,776.1366 C 527.90247,779.37198 528.1616,782.57649 528.59778,785.42518 C 529.03397,788.27388 529.57842,790.77032 531.39556,792.58746 C 535.16996,796.36188 535.45349,798.25219 537.77447,801.54032 C 540.70086,805.68609 536.63339,800.52019 541.46751,808.81451 C 539.05956,811.03969 537.91791,812.4205 536.76726,813.51476 C 535.61662,814.60901 534.47677,815.38748 531.95511,816.64825 C 528.26613,818.49273 523.79647,820.95407 519.08538,822.13188 C 515.77465,822.95954 512.81513,824.26239 510.13254,825.26537 C 507.44994,826.26834 505.05257,826.98751 502.63451,826.72022 C 500.1304,826.44336 497.72338,827.47236 495.47223,829.07034 C 493.2211,830.66831 491.12742,832.81206 489.20524,834.55396 C 487.27325,836.30473 485.90489,838.15802 484.95264,839.92566 C 484.00037,841.69331 483.39076,843.36854 482.93824,844.96164 C 482.03322,848.14789 481.70246,850.78454 479.91666,852.12392 C 478.71056,853.02848 478.14177,854.54671 477.90227,856.37653 C 477.69695,857.94504 477.85309,859.8584 478.01418,861.74825 C 489.06718,867.45962 510.61435,873.90804 522.33079,878.53483 C 520.10235,885.22613 518.29829,889.06954 516.73527,895.32144 C 514.82923,902.94561 513.19832,910.98803 505.99184,925.64921 C 502.98479,931.76684 496.95783,956.58011 493.12211,959.1105 C 486.85014,963.24804 483.1293,971.27598 493.56976,981.71644 C 500.45109,988.59774 490.94693,990.81384 497.03899,995.25764 C 503.90557,1000.2664 501.8263,989.36484 515.28042,992.34784 C 531.51821,995.94824 536.62988,994.67834 558.36602,993.91464 C 555.51915,988.18174 553.65187,987.87084 554.11341,979.81384 C 554.31428,976.30755 572.68865,971.84644 572.57867,957.54375 C 572.44184,940.23023 563.30011,947.5505 559.03748,942.32391 C 557.64116,940.6118 557.77674,934.99879 558.03029,932.02812 C 558.28382,929.05749 545.09868,928.41729 533.18612,928.22317 C 533.46484,922.40199 533.15324,923.85432 533.85759,916.13682 C 539.24674,911.76188 537.92422,908.15496 550.30846,908.52689 C 547.75166,894.92801 587.24791,884.13083 586.90323,866.33657 C 574.57151,865.67506 578.74453,865.29551 571.01193,865.21747 C 570.71668,858.99155 576.02906,837.89495 595.40844,818.10309 C 598.00329,808.40114 595.18466,805.51305 595.18462,792.81128 C 595.18462,775.2926 598.62964,771.96568 586.45559,758.00707 C 573.72288,743.40788 572.29063,740.57155 573.25013,726.78401 C 569.67189,723.20577 560.13518,712.89222 554.44914,706.52819 z"
         style="fill:#f4df00;fill-opacity:1;fill-rule:evenodd;stroke:#000000;stroke-width:7;stroke-linecap:butt;stroke-linejoin:miter;stroke-miterlimit:4;stroke-dasharray:none;stroke-opacity:1" />
      <path
         sodipodi:nodetypes="ccccsssscccsssssssssssssssssssssscssssssssssssssssssssssssssscsssssscscsscscsc"
         id="path3274"
         d="M 264.48867,524.22575 C 250.01638,562.16038 228.73048,587.37232 192.1944,627.40736 C 187.3581,626.1983 183.1349,627.15313 177.75793,625.95253 C 174.70948,632.70762 171.24913,640.86589 170.148,647.32745 C 177.83765,652.86103 182.47436,652.43491 182.90582,661.20437 C 183.66732,676.6826 127.61716,673.69264 149.24009,686.26616 C 155.12476,689.68805 168.20546,676.6955 177.50699,686.62899 C 183.8122,693.36262 183.00685,687.9306 184.12985,701.16346 C 184.90546,710.30289 198.32968,711.81183 203.83311,718.83834 C 209.93477,721.68576 214.49359,726.98123 220.6197,730.02941 C 220.66533,730.17159 220.68982,730.33253 220.73161,730.47706 C 222.12841,729.5802 223.60003,728.7984 225.09613,728.7984 C 228.03919,728.7984 230.33866,728.16399 232.59414,727.45548 C 234.84961,726.74694 237.03404,725.96317 239.64451,725.44107 C 243.19304,724.73136 244.76759,724.11351 245.79959,722.97904 C 246.83161,721.84457 247.31872,720.19565 248.70928,717.38351 C 250.06567,714.64046 251.79307,712.85824 253.96907,712.0118 C 256.14508,711.16536 258.77228,711.25418 261.80282,712.0118 C 266.56212,713.20164 267.61805,714.36185 272.88197,714.36193 C 274.70373,714.36193 277.67816,714.72304 280.6038,714.92148 C 283.52946,715.11992 286.40235,715.15569 287.9899,714.36193 C 291.50236,712.60573 295.22625,708.22578 299.06906,706.30437 C 301.20411,705.23682 303.12306,704.33705 304.7765,703.28277 C 306.42995,702.22849 307.81528,701.02157 309.14103,699.254 C 310.89778,696.91164 315.40675,694.66698 318.20578,691.86788 C 319.44969,690.62397 319.98916,688.49531 321.00354,686.60809 C 321.51075,685.66445 322.18471,684.77602 323.01794,684.14605 C 323.85116,683.51609 324.8485,683.13885 326.26335,683.13885 C 328.51727,683.13885 331.1612,683.26545 333.64945,683.25077 C 336.13769,683.23608 338.46651,683.08045 340.36408,682.13166 C 343.52066,680.55338 347.67681,680.11734 353.45763,680.11727 C 355.44026,680.11727 358.59711,679.72638 361.40328,679.78154 C 362.80638,679.80911 364.11164,679.87207 365.20825,680.22918 C 365.93082,680.46449 366.3242,680.98419 366.775,681.4602 C 367.10428,679.87475 366.407,678.54632 365.54398,676.87186 C 364.68096,675.19739 363.64151,673.25967 363.64151,670.26913 C 363.64151,669.11657 364.04323,668.09324 364.6487,667.24755 C 365.25417,666.40186 366.07546,665.73057 366.99882,665.12124 C 368.8455,663.90262 371.08995,663.01972 372.48244,662.32348 C 379.14153,658.99392 379.11077,658.82864 383.44969,654.48973 C 387.08583,650.85355 389.07075,647.50028 391.84298,641.95574 C 393.12339,639.39487 393.04574,636.48111 392.17872,634.122 C 391.31169,631.76288 389.56638,629.91577 387.59037,629.42175 C 384.58076,628.66931 384.41007,627.95581 384.00924,627.40736 C 383.6084,626.85891 383.01027,626.51208 379.19708,626.51208 C 377.27587,626.51211 373.96195,627.65123 370.69188,628.97411 C 367.42179,630.29698 364.18945,631.77768 362.63431,632.55525 C 358.64782,634.54845 356.12902,636.58764 351.21942,637.81504 C 349.58585,638.22345 348.14397,638.2204 346.96681,637.92695 C 345.78966,637.63352 344.85123,636.99698 343.94523,636.2483 C 342.13329,634.75095 340.63622,632.60352 338.79734,630.76467 C 336.7761,628.74341 335.58541,627.84627 334.65664,626.84781 C 333.72787,625.84935 333.06536,624.73522 332.41843,622.14756 C 331.73977,619.43284 331.75689,617.37222 332.19461,615.43292 C 332.63233,613.49362 333.535,611.74488 334.54473,609.72547 C 335.29298,608.22899 335.46666,606.66979 335.32812,605.24906 C 335.18955,603.82831 334.75176,602.52617 334.09709,601.33218 C 332.78776,598.94423 330.77043,597.0949 329.62067,596.52002 C 328.34643,595.88291 328.40762,592.95475 328.8373,590.0292 C 329.26696,587.10367 330.12166,584.21512 330.40404,583.65029 C 331.5856,581.28717 333.10472,580.58652 334.65664,579.95725 C 336.20857,579.32798 337.79433,578.82972 338.90925,576.59992 C 338.71322,574.60939 337.7572,572.40878 336.33531,570.33293 C 334.91342,568.25709 332.95274,566.21183 330.73978,564.40166 C 328.52681,562.59151 326.03484,561.00675 323.46559,559.81333 C 320.89633,558.61992 318.23454,557.91271 315.74375,557.68702 C 314.71481,557.57407 314.24368,556.70207 313.95317,555.44881 C 313.66267,554.19555 313.60226,552.54659 313.72935,550.86047 C 313.98358,547.48826 314.73654,543.88531 314.73654,543.02673 C 310.95512,544.38538 307.7366,546.75219 304.66459,549.29373 C 301.59259,551.83526 298.66665,554.58204 295.48793,556.90365 C 293.79391,557.7507 292.17056,558.2189 290.67577,558.3585 C 289.18095,558.49808 287.78392,558.28533 286.53507,557.91086 C 284.03737,557.16193 282.17299,555.63862 280.93953,553.99398 C 280.21407,547.96388 280.10513,544.83371 281.05144,541.79572 C 281.99777,538.75773 284.00321,535.80476 287.54226,530.04509 C 283.10663,527.8274 268.8918,526.37134 264.82441,524.33766 C 264.74147,524.29619 264.57369,524.26725 264.48867,524.22575 z"
         style="fill:#f4df00;fill-opacity:1;fill-rule:evenodd;stroke:#000000;stroke-width:7;stroke-linecap:butt;stroke-linejoin:miter;stroke-miterlimit:4;stroke-dasharray:none;stroke-opacity:1" />
      <path
         id="path3280"
         d="M 392.06681,636.91976 C 393.09699,636.52304 393.46693,636.22756 394.64074,635.80065 C 394.94955,635.80065 395.28897,635.98601 395.53603,635.80065 C 397.32944,634.45561 400.13644,634.31856 402.02685,633.56245 C 402.78173,633.26048 404.36681,632.68675 405.94372,632.44334 C 407.52064,632.19992 409.04821,632.19058 409.8606,633.00289 C 410.9061,634.04844 412.76802,636.80785 414.56084,636.80785 C 417.34023,636.80785 420.06283,636.80785 422.84224,636.80785 C 425.88993,636.80785 430.4585,637.53207 433.0261,636.2483 C 435.27094,635.1259 437.97419,633.6063 440.97175,632.10761 C 441.5572,631.81489 443.51742,630.73012 445.56009,629.9813 C 447.60277,629.23249 449.73624,628.78573 450.70799,629.75748 C 452.55087,631.60041 453.6901,633.00951 456.19161,634.01009 C 458.64766,634.9925 463.46837,634.14596 465.48019,635.35301 C 466.31989,635.85685 467.62626,637.78057 468.94941,639.49371 C 470.27258,641.20686 471.60258,642.69951 472.41865,642.29147 C 475.05923,640.97118 478.40971,638.59076 479.80475,635.80065 C 480.55779,634.2946 481.30081,631.69047 480.81194,629.30984 C 480.16602,626.1643 479.64471,625.69568 478.90946,625.28106 C 478.17422,624.86643 477.17271,624.53142 475.66405,621.92374 C 473.92533,618.91845 473.80147,608.90987 472.41865,606.14434 C 472.20664,605.72034 470.70031,602.92667 469.06132,600.21307 C 467.42235,597.49946 465.67632,594.90425 465.03255,595.06518 C 463.5939,595.42484 460.47421,598.28215 458.09409,598.75824 C 456.57052,599.06291 454.66755,600.88454 453.0581,602.22746 C 452.25338,602.89892 451.51076,603.48037 450.93181,603.6823 C 450.35284,603.88424 449.8892,603.65258 449.70079,602.89892 C 449.10159,600.50213 449.70079,597.98352 449.70079,595.51282 C 449.70079,592.52604 451.27347,590.57694 452.49855,588.12672 C 453.6948,585.73423 453.95336,584.12967 453.95339,581.18826 C 453.95339,580.04642 454.08216,578.38341 453.95339,577.04756 C 453.82461,575.71173 453.38878,574.69745 452.05091,574.69745 C 449.96085,574.69745 445.58971,574.16741 444.21717,572.79497 C 443.35866,571.93646 443.15106,571.34751 443.09806,570.55675 C 443.04505,569.766 443.08145,568.84855 442.76233,567.31134 C 441.77136,562.53836 442.25537,557.69602 441.86703,552.87487 C 441.72362,551.09425 440.99411,550.57764 440.07647,550.30092 C 439.15883,550.02421 438.09707,550.00022 437.27871,549.18182 C 435.40183,547.30494 431.62075,546.88126 429.33306,544.59349 C 428.22955,543.48999 423.58579,537.65509 421.94694,537.65503 C 420.81355,537.65503 419.52319,537.49207 418.36581,537.54311 C 417.20841,537.59414 416.17848,537.82799 415.45612,538.55031 C 414.6314,539.37504 413.1743,540.37501 411.87499,541.45998 C 410.57568,542.54497 409.41296,543.72062 409.41296,545.04113 C 409.41296,546.73962 408.8491,547.80459 407.95811,548.73417 C 407.06713,549.66376 405.89294,550.46358 404.82462,551.53195 C 402.4824,553.87418 400.99476,555.88429 400.23628,558.91805 C 399.84336,560.4898 398.64429,563.30785 397.43852,564.51357 C 396.41871,565.53338 390.21879,566.86359 388.14993,566.8637 C 387.39378,559.67496 387.21851,564.62061 386.69509,558.91805 C 384.38265,558.33995 380.55369,558.64513 378.41371,557.57511 C 377.54971,557.14313 376.55413,556.3556 375.72786,555.44881 C 374.90157,554.54203 374.27305,553.46361 374.27301,552.42723 C 374.27301,549.26318 374.66306,546.94682 376.06359,544.14583 C 376.57407,543.12493 376.85194,542.07769 376.62314,541.12425 C 376.39434,540.17081 375.72115,539.27438 374.27301,538.55031 C 372.87704,537.85231 371.9433,536.84414 371.02761,535.97636 C 370.1119,535.10858 369.20867,534.40965 367.78219,534.40961 C 365.38577,534.40961 362.97476,534.3246 360.84373,534.85726 C 359.0008,535.31801 356.91566,535.02131 355.69585,536.64782 C 354.67332,538.0112 353.44052,538.75118 352.0028,539.33369 C 350.56507,539.9162 348.97927,540.40921 347.41445,541.34807 C 344.00671,543.39273 343.97399,544.78843 341.81892,546.94361 C 339.77388,548.98865 337.10339,551.31575 333.98518,552.87487 C 330.51473,554.61011 326.08661,557.01417 323.80132,558.02277 C 323.27299,558.50273 322.7629,558.99762 322.23457,559.4776 C 322.64751,559.64305 323.05625,559.62321 323.46559,559.81333 C 326.03484,561.00675 328.52681,562.59151 330.73978,564.40166 C 332.95274,566.21183 334.91342,568.25709 336.33531,570.33293 C 337.7572,572.40878 338.71322,574.60939 338.90925,576.59992 C 337.79433,578.82972 336.20857,579.32798 334.65664,579.95725 C 333.10472,580.58652 331.5856,581.28717 330.40404,583.65029 C 330.12166,584.21512 329.26696,587.10367 328.8373,590.0292 C 328.40762,592.95475 328.34643,595.88291 329.62067,596.52002 C 330.77043,597.0949 332.78776,598.94423 334.09709,601.33218 C 334.75176,602.52617 335.18955,603.82831 335.32812,605.24906 C 335.46666,606.66979 335.29298,608.22899 334.54473,609.72547 C 333.535,611.74488 332.63233,613.49362 332.19461,615.43292 C 331.75689,617.37222 331.73977,619.43284 332.41843,622.14756 C 333.06536,624.73522 333.72787,625.84935 334.65664,626.84781 C 335.58541,627.84627 336.7761,628.74341 338.79734,630.76467 C 340.63622,632.60352 342.13329,634.75095 343.94523,636.2483 C 344.85123,636.99698 345.78966,637.63352 346.96681,637.92695 C 348.14397,638.2204 349.58585,638.22345 351.21942,637.81504 C 356.12902,636.58764 358.64782,634.54845 362.63431,632.55525 C 364.18945,631.77768 367.42179,630.29698 370.69188,628.97411 C 373.96195,627.65123 377.27587,626.51211 379.19708,626.51208 C 383.01027,626.51208 383.6084,626.85891 384.00924,627.40736 C 384.41007,627.95581 384.58076,628.66931 387.59037,629.42175 C 389.56638,629.91577 391.31169,631.76288 392.17872,634.122 C 392.48834,634.96443 391.98441,635.9772 392.06681,636.91976 z"
         style="fill:#edf700;fill-opacity:1;fill-rule:evenodd;stroke:#000000;stroke-width:7;stroke-linecap:butt;stroke-linejoin:miter;stroke-miterlimit:4;stroke-dasharray:none;stroke-opacity:1" />
      <path
         id="path3292"
         d="M 484.05736,369.2295 C 483.63589,369.27696 483.22707,369.42321 482.82633,369.56523 C 481.97019,369.8687 481.50636,370.40352 480.81194,370.90817 C 480.88081,371.49136 481.07773,371.95207 480.92385,372.69874 C 479.80765,378.11464 472.44705,387.69046 467.60648,391.72355 C 460.19062,397.90234 463.40811,408.85609 465.25637,419.92503 C 465.85732,423.524 473.40152,437.06927 484.95264,439.95703 C 487.87868,440.68856 505.45677,434.31606 511.9231,438.83793 C 512.32576,438.71667 512.37415,438.74694 512.81839,438.61411 C 517.74342,436.55588 521.34794,435.363 525.68811,434.24959 C 530.02827,433.13617 535.13237,432.10052 543.03425,430.1089 C 540.52868,427.69577 538.77241,424.91706 537.43873,421.82751 C 536.10504,418.73795 535.16975,415.24436 534.08141,411.30791 C 531.2098,408.40296 524.79923,402.78487 518.74965,396.64762 C 515.72487,393.57897 512.82304,390.39007 510.46827,387.35903 C 508.11348,384.32799 506.36453,381.50733 505.65611,379.07765 C 505.71097,378.78223 505.71315,378.47776 505.76802,378.18236 C 504.69345,377.89329 503.58452,377.85107 502.5226,377.5109 C 499.70253,376.60752 496.95902,375.72032 494.0174,375.72032 C 492.6633,375.72032 491.30641,375.02043 490.21244,374.26548 C 489.11848,373.51054 488.23221,372.62099 487.63849,372.02728 C 487.40042,371.78917 487.34141,371.43313 487.19085,371.13199 C 486.67613,370.10258 486.03934,369.5575 485.28837,369.34141 C 484.91288,369.23338 484.47881,369.18206 484.05736,369.2295 z M 474.54494,438.83793 C 455.00668,449.83231 464.36717,445.36036 442.76233,459.87713 C 433.68929,468.95016 433.28008,475.78971 425.41618,486.17613 C 407.15325,494.6037 396.97179,496.46535 384.12115,504.08184 C 383.55706,511.13733 383.63698,517.71011 381.21147,518.51831 C 381.42941,518.93239 381.66498,519.33523 381.88293,519.74932 C 386.6971,520.80518 391.63345,522.08086 396.54324,523.55428 C 401.45301,525.02771 406.3683,526.74526 411.09162,528.92599 C 415.81492,531.10674 420.37812,533.69389 424.6328,536.87164 C 428.88749,540.04941 432.76762,543.82196 436.27152,548.28653 C 438.17818,548.2865 445.14053,543.02433 447.7983,543.13864 C 451.75242,543.30875 453.40988,542.84921 454.40103,541.90763 C 455.39219,540.96604 455.7412,539.60857 456.75116,538.10267 C 461.59856,530.87463 458.98815,532.73221 459.66083,532.0595 C 461.52174,530.19856 462.52675,529.28922 463.01816,528.14262 C 463.50955,526.99601 463.4658,525.69982 463.4658,523.21855 C 463.4658,522.03043 464.33304,520.35017 465.36828,518.85404 C 466.40351,517.35791 467.65254,515.9773 468.61368,515.49671 C 473.89788,512.85472 476.1604,511.28928 481.81913,509.56545 C 484.28784,508.81338 485.11308,507.90749 485.73601,507.10342 C 486.35895,506.29935 486.7808,505.59633 488.19804,505.31285 C 490.14507,504.92348 492.35664,504.43128 494.35313,503.74609 C 496.34961,503.06092 498.15559,502.18185 499.2772,501.06024 C 502.64172,497.69584 503.1786,498.52099 507.33476,495.91235 C 508.93632,494.90709 509.7621,494.18628 510.24445,493.2265 C 510.72678,492.26672 510.84407,491.17855 511.13973,489.64535 C 511.4567,488.00154 512.60735,486.55204 513.82558,485.28085 C 515.04381,484.00964 516.28589,482.82558 516.62334,481.47588 C 517.37205,476.4619 518.61378,471.58187 519.1973,466.59177 C 515.02645,458.79619 512.05085,457.33484 509.57297,452.37912 C 509.13303,451.49919 509.1797,450.16339 508.90151,449.1337 C 500.81617,450.13449 484.3823,443.7369 474.76876,438.94984 C 474.70764,438.9194 474.60547,438.86818 474.54494,438.83793 z"
         style="fill:#f4df00;fill-opacity:1;fill-rule:evenodd;stroke:#000000;stroke-width:7;stroke-linecap:butt;stroke-linejoin:miter;stroke-miterlimit:4;stroke-dasharray:none;stroke-opacity:1" />
      <path
         sodipodi:nodetypes="csssssssssssssssssssssssssssssssssssccsssssssssssssssssssssssssssssscssssscsccsscssccccsssssssssssssssssssssssssssssssssssssssssssscssccccsccsssssssssssssssscc"
         id="path3303"
         d="M 437.27871,548.3804 C 438.09707,549.19879 439.15883,550.02421 440.07647,550.30092 C 440.99411,550.57764 441.72362,551.09425 441.86703,552.87487 C 442.25537,557.69602 441.77136,562.53836 442.76233,567.31134 C 443.08145,568.84855 443.04505,569.766 443.09806,570.55675 C 443.15106,571.34751 443.35866,571.93646 444.21717,572.79497 C 445.58971,574.16741 449.96085,574.69745 452.05091,574.69745 C 453.38878,574.69745 453.82461,575.71173 453.95339,577.04756 C 454.08216,578.38341 453.95339,580.04642 453.95339,581.18826 C 453.95336,584.12967 453.6948,585.73423 452.49855,588.12672 C 451.27347,590.57694 449.70079,592.52604 449.70079,595.51282 C 449.70079,597.98352 449.10159,600.50213 449.70079,602.89892 C 449.8892,603.65258 450.35284,603.88424 450.93181,603.6823 C 451.51076,603.48037 452.25338,602.89892 453.0581,602.22746 C 454.66755,600.88454 456.57052,599.06291 458.09409,598.75824 C 460.47421,598.28215 463.5939,595.42484 465.03255,595.06518 C 465.67632,594.90425 467.42235,597.49946 469.06132,600.21307 C 470.70031,602.92667 472.20664,605.72034 472.41865,606.14434 C 473.80147,608.90987 473.92533,618.91845 475.66405,621.92374 C 477.17271,624.53142 478.17422,624.86643 478.90946,625.28106 C 479.64471,625.69568 480.16602,626.1643 480.81194,629.30984 C 481.30081,631.69047 480.55779,634.2946 479.80475,635.80065 C 478.40971,638.59076 475.05923,640.97118 472.41865,642.29147 C 471.60258,642.69951 470.27258,641.20686 468.94941,639.49371 C 467.62626,637.78057 466.31989,635.85685 465.48019,635.35301 C 463.46837,634.14596 458.64766,634.9925 456.19161,634.01009 C 453.6901,633.00951 452.55087,631.60041 450.70799,629.75748 C 449.73624,628.78573 447.60277,629.23249 445.56009,629.9813 C 443.51742,630.73012 441.5572,631.81489 440.97175,632.10761 C 437.97419,633.6063 435.27094,635.1259 433.0261,636.2483 C 430.4585,637.53207 425.88993,636.80785 422.84224,636.80785 C 420.06283,636.80785 417.34023,636.80785 414.56084,636.80785 C 412.76802,636.80785 410.9061,634.04844 409.8606,633.00289 C 409.04821,632.19058 407.52064,632.19992 405.94372,632.44334 C 404.36681,632.68675 402.78173,633.26048 402.02685,633.56245 C 400.13644,634.31856 397.32944,634.45561 395.53603,635.80065 C 395.28897,635.98601 394.94955,635.80065 394.64074,635.80065 C 393.46693,636.22756 393.09699,636.52304 392.06681,636.91976 C 392.21514,638.61672 392.66615,640.30935 391.84298,641.95574 C 389.07075,647.50028 387.08583,650.85355 383.44969,654.48973 C 379.11077,658.82864 379.14153,658.99392 372.48244,662.32348 C 371.08995,663.01972 368.8455,663.90262 366.99882,665.12124 C 366.07546,665.73057 365.25417,666.40186 364.6487,667.24755 C 364.04323,668.09324 363.64151,669.11657 363.64151,670.26913 C 363.64151,673.25967 364.68096,675.19739 365.54398,676.87186 C 366.407,678.54632 367.10428,679.87475 366.775,681.4602 C 366.79094,681.47703 366.75943,681.555 366.775,681.57211 C 366.98747,681.80559 367.4158,681.84653 367.55837,682.13166 C 368.43303,683.88098 369.7809,686.12155 371.47525,687.95102 C 373.1696,689.78048 375.31961,691.19642 377.74225,691.19642 C 379.96713,691.19642 381.3617,691.51128 382.33059,691.97979 C 383.29946,692.44832 383.73227,692.9814 384.12115,693.65846 C 384.51003,694.33551 384.86728,695.04722 385.35217,695.67285 C 385.83705,696.29847 386.55733,696.92538 387.8142,697.23959 C 391.60089,698.18628 396.43154,700.03748 401.5792,700.03737 C 404.36358,700.03737 408.27404,700.4406 411.87499,700.3731 C 413.67545,700.33937 415.41975,700.15375 416.91097,699.81355 C 418.40218,699.47333 419.6524,698.97458 420.4921,698.13488 C 423.22323,695.40376 426.70203,692.87667 429.55688,689.07012 C 430.84991,687.34609 432.73137,684.90135 435.04049,682.91503 C 437.34961,680.92872 440.06361,679.44584 442.76233,679.44581 C 449.14668,679.44581 449.24046,677.09565 455.29631,677.09568 C 461.00527,677.09568 466.7097,677.09565 472.41865,677.09568 C 475.55325,677.09568 478.96057,677.4841 482.15487,678.32669 C 485.34917,679.16931 488.32561,680.46471 490.54818,682.13166 C 493.11896,684.05975 495.27072,686.61969 497.59854,688.95821 C 499.92635,691.29673 502.42627,693.4106 505.65611,694.21801 C 511.32297,695.63471 516.49661,696.23237 522.77843,696.2324 C 524.75924,696.2324 526.23129,696.90122 527.7025,697.57533 C 527.7955,695.72002 527.56935,694.30689 527.92632,693.65846 C 528.32397,692.93614 529.4766,692.87509 532.40275,692.87509 C 534.34627,692.87509 535.82141,693.53891 537.103,694.55374 C 538.38458,695.56856 539.4846,696.93534 540.57222,698.02297 C 543.2236,700.67442 547.1602,702.82038 549.18934,704.84952 C 550.40579,706.066 552.51394,706.16839 554.44914,706.52819 C 552.72215,704.59522 548.81032,700.64752 548.7417,700.3731 C 546.75202,692.41429 553.84876,692.22589 544.15337,679.22199 C 557.05525,671.50979 564.09777,668.35373 581.75534,668.36665 C 574.38184,657.53571 572.6808,654.18537 575.60025,653.48254 C 578.72821,652.72961 591.21181,657.78127 597.98239,662.09966 C 602.99297,665.29543 612.85598,669.42177 621.81935,674.29792 C 624.76753,668.88992 625.76118,665.28469 628.98163,664.11404 C 632.69792,662.76317 641.45145,667.39165 656.73547,659.74954 C 658.52232,658.85611 669.74196,645.32564 686.83944,649.11802 C 698.75866,637.56526 694.72089,641.94203 705.3047,630.31703 C 703.509,626.72562 692.87895,616.45018 676.54365,600.88454 C 686.28375,591.96165 694.0262,587.63589 700.04489,584.54557 C 698.43188,584.44878 697.44004,584.17515 695.79228,584.09793 C 688.59179,583.76056 681.37361,583.56435 677.32702,582.75501 C 675.88149,582.4659 674.43637,581.45229 673.18634,580.18107 C 671.93631,578.90983 670.96965,577.35726 670.61238,575.92846 C 670.30513,574.69938 669.7598,573.82985 669.04564,573.1307 C 668.33149,572.43155 667.44767,571.87948 666.35979,571.22821 C 663.899,569.75515 661.14837,569.0131 658.30223,568.65427 C 655.45608,568.29544 652.51095,568.27445 649.34937,568.20663 C 640.10007,568.00816 637.76399,567.6177 636.92728,566.52797 C 636.50894,565.98309 636.43532,565.29863 636.032,564.40166 C 635.62869,563.50469 634.90266,562.3796 633.12233,561.04435 C 630.48904,559.06935 629.74865,557.70505 629.31736,556.23219 C 628.88609,554.75934 628.80759,553.19832 627.6387,550.86047 C 627.37531,550.33366 626.8082,549.57467 625.62432,548.958 C 624.44042,548.34132 622.68291,547.82167 620.02878,547.83889 C 618.16777,547.8496 616.05257,547.39644 614.32134,547.61507 C 613.45574,547.7244 612.72255,548.06916 612.08313,548.62226 C 611.44372,549.17537 610.91231,549.93815 610.62828,551.19622 C 610.41417,552.14468 609.54407,552.85371 608.27816,553.32252 C 607.01227,553.79132 605.33408,554.02521 603.57791,554.10589 C 600.0656,554.26725 596.1699,553.82856 594.06551,552.98678 C 592.08099,552.19299 590.19616,552.79534 588.35807,553.21061 C 587.43904,553.41824 586.44764,553.55113 585.56031,553.43443 C 584.67297,553.31771 583.84523,552.95033 582.98635,552.0915 C 581.15797,550.26311 580.09319,550.09361 578.28612,548.28653 C 577.0927,547.09312 574.9159,544.27082 572.57867,541.57189 C 570.24143,538.87297 567.76368,536.29487 565.97594,535.52872 C 564.28271,534.80307 563.25939,534.20473 562.50671,533.40242 C 561.75402,532.6001 561.22613,531.52551 560.82805,529.93318 C 560.58404,528.95708 559.80377,527.35824 559.1494,525.68059 C 558.49502,524.00292 558.05554,522.33425 558.36602,521.09225 C 558.83905,519.20011 559.56932,516.75552 561.27569,515.04907 C 563.49417,512.83059 568.74073,508.28857 569.7809,506.20814 C 570.09941,505.57112 569.94348,504.87626 569.44517,504.19375 C 568.94685,503.51122 568.14257,502.78381 567.31887,502.06744 C 565.6715,500.63466 563.8496,499.20135 563.84965,497.70293 C 563.84965,496.23361 564.93271,495.63926 565.86403,495.12898 C 566.79534,494.61871 567.62019,494.1692 566.87123,493.00268 C 564.90704,489.94341 562.52022,487.09157 560.49232,484.04983 C 559.7578,482.94801 559.46457,481.07737 559.1494,479.34958 C 558.83421,477.62178 558.45174,476.03515 557.47074,475.54461 C 554.43464,474.02657 551.49084,472.97071 548.07024,472.97067 C 546.61318,472.97067 541.05259,474.95914 540.46031,476.4399 C 540.36133,476.6874 540.39789,477.68105 539.90076,478.90194 C 539.40364,480.12281 538.37202,481.57211 536.2077,482.8188 C 531.90419,478.13947 527.80002,475.44233 524.00946,471.85157 C 522.11417,470.0562 520.2537,467.94647 518.52583,465.36075 C 516.79797,462.77502 515.24798,459.70896 513.71367,455.62452 C 513.71367,453.23017 513.71367,449.45444 513.71367,448.35033 C 513.53161,448.23338 513.33618,448.13156 513.15412,448.0146 C 512.38457,448.92772 510.51857,448.93355 508.90151,449.1337 C 509.1797,450.16339 509.13303,451.49919 509.57297,452.37912 C 512.05085,457.33484 515.02645,458.79619 519.1973,466.59177 C 518.61378,471.58187 517.37205,476.4619 516.62334,481.47588 C 516.28589,482.82558 515.04381,484.00964 513.82558,485.28085 C 512.60735,486.55204 511.4567,488.00154 511.13973,489.64535 C 510.84407,491.17855 510.72678,492.26672 510.24445,493.2265 C 509.7621,494.18628 508.93632,494.90709 507.33476,495.91235 C 503.1786,498.52099 502.64172,497.69584 499.2772,501.06024 C 498.15559,502.18185 496.34961,503.06092 494.35313,503.74609 C 492.35664,504.43128 490.14507,504.92348 488.19804,505.31285 C 486.7808,505.59633 486.35895,506.29935 485.73601,507.10342 C 485.11308,507.90749 484.28784,508.81338 481.81913,509.56545 C 476.1604,511.28928 473.89788,512.85472 468.61368,515.49671 C 467.65254,515.9773 466.40351,517.35791 465.36828,518.85404 C 464.33304,520.35017 463.4658,522.03043 463.4658,523.21855 C 463.4658,525.69982 463.50955,526.99601 463.01816,528.14262 C 462.52675,529.28922 461.52174,530.19856 459.66083,532.0595 C 458.98815,532.73221 461.59856,530.87463 456.75116,538.10267 C 455.7412,539.60857 455.39219,540.96604 454.40103,541.90763 C 453.40988,542.84921 451.75242,543.30875 447.7983,543.13864 C 439.95879,549.83058 438.96335,546.32894 437.27871,548.3804 z"
         style="fill:#e9cb00;fill-opacity:1;fill-rule:evenodd;stroke:#000000;stroke-width:7;stroke-linecap:butt;stroke-linejoin:miter;stroke-miterlimit:4;stroke-dasharray:none;stroke-opacity:1" />
      <path
         id="path3289"
         d="M 513.15412,448.0146 C 513.33618,448.13156 513.53161,448.23338 513.71367,448.35033 C 513.71367,449.45444 513.71367,453.23017 513.71367,455.62452 C 515.24798,459.70896 516.79797,462.77502 518.52583,465.36075 C 520.2537,467.94647 522.11417,470.0562 524.00946,471.85157 C 527.80002,475.44233 531.90419,478.13947 536.2077,482.8188 C 538.37202,481.57211 539.40364,480.12281 539.90076,478.90194 C 540.39789,477.68105 540.36133,476.6874 540.46031,476.4399 C 541.05259,474.95914 546.61318,472.97067 548.07024,472.97067 C 551.49084,472.97071 554.43464,474.02657 557.47074,475.54461 C 558.45174,476.03515 558.83421,477.62178 559.1494,479.34958 C 559.46457,481.07737 559.7578,482.94801 560.49232,484.04983 C 562.52022,487.09157 564.90704,489.94341 566.87123,493.00268 C 567.62019,494.1692 566.79534,494.61871 565.86403,495.12898 C 564.93271,495.63926 563.84965,496.23361 563.84965,497.70293 C 563.8496,499.20135 565.6715,500.63466 567.31887,502.06744 C 568.14257,502.78381 568.94685,503.51122 569.44517,504.19375 C 569.94348,504.87626 570.09941,505.57112 569.7809,506.20814 C 568.74073,508.28857 563.49417,512.83059 561.27569,515.04907 C 559.56932,516.75552 558.83905,519.20011 558.36602,521.09225 C 558.05554,522.33425 558.49502,524.00292 559.1494,525.68059 C 559.80377,527.35824 560.58404,528.95708 560.82805,529.93318 C 561.22613,531.52551 561.75402,532.6001 562.50671,533.40242 C 563.25939,534.20473 564.28271,534.80307 565.97594,535.52872 C 567.76368,536.29487 570.24143,538.87297 572.57867,541.57189 C 574.9159,544.27082 577.0927,547.09312 578.28612,548.28653 C 580.09319,550.09361 581.15797,550.26311 582.98635,552.0915 C 583.84523,552.95033 584.67297,553.31771 585.56031,553.43443 C 586.44764,553.55113 587.43904,553.41824 588.35807,553.21061 C 590.19616,552.79534 592.08099,552.19299 594.06551,552.98678 C 596.1699,553.82856 600.0656,554.26725 603.57791,554.10589 C 605.33408,554.02521 607.01227,553.79132 608.27816,553.32252 C 609.54407,552.85371 610.41417,552.14468 610.62828,551.19622 C 610.91231,549.93815 611.44372,549.17537 612.08313,548.62226 C 612.72255,548.06916 613.45574,547.7244 614.32134,547.61507 C 616.05257,547.39644 618.16777,547.8496 620.02878,547.83889 C 622.68291,547.82167 624.44042,548.34132 625.62432,548.958 C 626.8082,549.57467 627.37531,550.33366 627.6387,550.86047 C 628.80759,553.19832 628.88609,554.75934 629.31736,556.23219 C 629.74865,557.70505 630.48904,559.06935 633.12233,561.04435 C 634.90266,562.3796 635.62869,563.50469 636.032,564.40166 C 636.43532,565.29863 636.50894,565.98309 636.92728,566.52797 C 637.76399,567.6177 640.10007,568.00816 649.34937,568.20663 C 652.51095,568.27445 655.45608,568.29544 658.30223,568.65427 C 661.14837,569.0131 663.899,569.75515 666.35979,571.22821 C 667.44767,571.87948 668.33149,572.43155 669.04564,573.1307 C 669.7598,573.82985 670.30513,574.69938 670.61238,575.92846 C 670.96965,577.35726 671.93631,578.90983 673.18634,580.18107 C 674.43637,581.45229 675.88149,582.4659 677.32702,582.75501 C 681.37361,583.56435 688.59179,583.76056 695.79228,584.09793 C 697.44004,584.17515 698.43188,584.44878 700.04489,584.54557 C 703.9734,582.52847 707.72995,580.78249 708.88583,579.50961 C 712.33217,575.71459 718.60959,562.13881 726.67963,560.93244 C 731.41288,560.2248 724.64683,548.66402 745.03296,545.48877 C 737.67153,539.20895 739.05411,533.16299 738.9898,529.48554 C 738.64145,509.55736 746.24414,507.0781 741.22801,500.83642 C 731.07389,488.20145 728.67579,479.19122 724.21758,480.02104 C 719.75935,480.85083 716.36254,489.64965 712.13125,486.17613 C 706.01357,481.15402 694.61065,482.4241 688.74191,482.25925 C 670.89405,481.75804 668.55994,455.03532 678.44614,453.72204 C 688.35708,452.40554 677.99753,445.27671 676.31983,433.80195 C 674.22881,433.07032 672.1516,432.43147 670.61238,430.89228 C 668.85925,429.13915 668.09846,427.76304 666.80743,426.86349 C 665.51639,425.96394 663.76625,425.52056 659.98088,425.52056 C 657.56128,425.52056 655.73387,424.92677 653.04242,424.51337 C 650.35098,424.09996 646.81174,423.93003 640.73225,424.51337 C 638.55678,429.254 638.06416,429.23273 637.82258,429.66125 C 637.581,430.08977 637.50701,430.88271 636.36773,437.27118 C 634.52123,437.27118 629.63989,437.33274 624.95286,436.93545 C 622.60935,436.7368 620.2563,436.3813 618.46204,435.92824 C 616.66778,435.47521 615.39822,434.94849 614.9928,434.13768 C 613.35734,430.86671 612.47683,429.83591 611.07594,429.21361 C 609.67502,428.59132 607.71298,428.37144 604.24939,426.63967 C 600.58774,424.80881 594.95775,423.56067 590.37245,421.26795 C 588.27395,420.21868 585.34207,420.6804 582.65062,420.93222 C 581.3049,421.05814 580.03245,421.16567 578.95758,420.93222 C 577.88269,420.69877 577.02018,420.19093 576.49554,419.14166 C 575.20146,416.55353 571.54953,412.60686 570.00472,409.51733 C 568.59278,406.69346 568.13662,404.24085 568.21415,402.01932 C 568.29168,399.79779 568.90294,397.7321 570.00472,395.5285 C 571.15545,393.22702 578.62027,389.17263 580.74815,386.01611 C 579.70216,383.23835 578.61644,381.06232 577.39083,379.30147 C 576.16522,377.54061 574.84095,376.20128 573.47396,374.93695 C 570.73993,372.40835 567.81525,370.32014 564.74493,366.65556 C 564.46184,366.27152 564.13272,365.9205 563.84965,365.53646 C 560.54052,368.385 556.676,371.80914 553.55386,373.3702 C 551.64809,374.32307 548.69551,374.75807 545.83203,374.71313 C 542.96855,374.66819 540.21587,374.14326 538.66975,373.3702 C 536.47776,372.27416 539.46705,372.72391 535.98388,372.02728 C 534.6353,371.75757 532.60011,372.26778 530.61219,373.03447 C 528.62425,373.80116 526.6649,374.90383 525.5762,375.72032 C 524.97389,376.17206 524.3879,376.61157 523.78564,377.06326 C 522.20516,378.24861 520.04008,378.80938 517.74246,379.07765 C 515.44483,379.34591 513.0161,379.30147 511.13973,379.30147 C 509.30529,379.3015 507.5471,378.66099 505.76802,378.18236 C 505.71315,378.47776 505.71097,378.78223 505.65611,379.07765 C 506.36453,381.50733 508.11348,384.32799 510.46827,387.35903 C 512.82304,390.39007 515.72487,393.57897 518.74965,396.64762 C 524.79923,402.78487 531.2098,408.40296 534.08141,411.30791 C 535.16975,415.24436 536.10504,418.73795 537.43873,421.82751 C 538.77241,424.91706 540.52868,427.69577 543.03425,430.1089 C 535.13237,432.10052 530.02827,433.13617 525.68811,434.24959 C 521.34794,435.363 517.74342,436.55588 512.81839,438.61411 C 512.37415,438.74694 512.32576,438.71667 511.9231,438.83793 C 513.93009,440.24141 514.98728,442.60662 514.0494,446.67167 C 513.91532,447.25285 513.5007,447.60335 513.15412,448.0146 z"
         style="fill:#edf700;fill-opacity:1;fill-rule:evenodd;stroke:#000000;stroke-width:7;stroke-linecap:butt;stroke-linejoin:miter;stroke-miterlimit:4;stroke-dasharray:none;stroke-opacity:1" />
      <path
         id="path3286"
         d="M 563.84965,365.53646 C 564.13272,365.9205 564.46184,366.27152 564.74493,366.65556 C 567.81525,370.32014 570.73993,372.40835 573.47396,374.93695 C 574.84095,376.20128 576.16522,377.54061 577.39083,379.30147 C 578.61644,381.06232 579.70216,383.23835 580.74815,386.01611 C 578.62027,389.17263 571.15545,393.22702 570.00472,395.5285 C 568.90294,397.7321 568.29168,399.79779 568.21415,402.01932 C 568.13662,404.24085 568.59278,406.69346 570.00472,409.51733 C 571.54953,412.60686 575.20146,416.55353 576.49554,419.14166 C 577.02018,420.19093 577.88269,420.69877 578.95758,420.93222 C 580.03245,421.16567 581.3049,421.05814 582.65062,420.93222 C 585.34207,420.6804 588.27395,420.21868 590.37245,421.26795 C 594.95775,423.56067 600.58774,424.80881 604.24939,426.63967 C 607.71298,428.37144 609.67502,428.59132 611.07594,429.21361 C 612.47683,429.83591 613.35734,430.86671 614.9928,434.13768 C 615.39822,434.94849 616.66778,435.47521 618.46204,435.92824 C 620.2563,436.3813 622.60935,436.7368 624.95286,436.93545 C 629.63989,437.33274 634.52123,437.27118 636.36773,437.27118 C 637.50701,430.88271 637.581,430.08977 637.82258,429.66125 C 638.06416,429.23273 638.55678,429.254 640.73225,424.51337 C 646.81174,423.93003 650.35098,424.09996 653.04242,424.51337 C 655.73387,424.92677 657.56128,425.52056 659.98088,425.52056 C 663.76625,425.52056 665.51639,425.96394 666.80743,426.86349 C 668.09846,427.76304 668.85925,429.13915 670.61238,430.89228 C 672.1516,432.43147 674.22881,433.07032 676.31983,433.80195 C 676.19854,432.97244 675.77597,432.32853 675.76028,431.45183 C 689.58391,428.10633 717.13022,429.34442 740.22081,428.65405 C 739.19682,405.07479 738.44439,391.45746 738.31832,386.57566 C 738.17036,380.84552 738.51883,376.18436 739.10171,372.13919 C 737.44532,368.21888 734.8587,362.60003 733.95382,359.94092 C 732.10287,354.50167 731.71564,351.16033 731.71559,347.40693 C 726.37412,339.1108 721.20789,331.99958 716.16002,325.69627 C 711.11215,319.39296 706.11109,313.89333 701.05209,308.79775 C 690.93407,298.60666 680.47699,289.99513 668.48609,279.92481 C 664.98112,281.64444 663.00716,283.33034 661.77145,284.73698 C 660.53574,286.14361 660.09282,287.2725 659.75706,287.87047 C 659.42128,288.46845 659.21928,288.57674 658.41414,287.87047 C 657.60898,287.16421 656.13394,285.67638 653.49007,283.17023 C 650.66862,277.80676 647.67819,273.64707 643.53001,269.40522 C 639.38184,265.16336 634.08597,260.91251 626.74342,255.41639 C 623.56366,257.57775 620.42583,260.09149 617.45483,263.02632 C 614.48385,265.96112 611.67946,269.24571 609.39727,272.76253 C 607.11508,276.27936 605.36273,280.04622 604.24939,283.9536 C 603.13604,287.86097 602.7067,291.93345 603.24218,296.03996 C 603.15431,296.18036 603.10624,296.34718 603.01836,296.4876 C 603.77098,297.23902 604.62562,298.31867 605.59231,299.28536 C 606.48368,300.17674 606.82722,301.17452 606.93524,302.08312 C 607.04324,302.99173 606.82447,303.81146 606.59951,304.76898 C 606.14953,306.68403 605.56718,308.73488 606.4876,311.03598 C 607.42077,313.3688 607.76012,315.37502 608.39007,317.19106 C 609.02003,319.00709 609.89201,320.64364 611.85931,322.33894 C 616.37623,326.23144 618.28455,326.9381 619.35732,327.1511 C 620.43008,327.36412 620.69015,327.13459 621.81935,329.16549 C 620.18509,331.91295 619.66011,333.50735 618.57395,335.09676 C 617.48779,336.68618 615.81765,338.27721 611.85931,340.91611 C 608.98419,342.83284 607.14562,345.38041 605.36849,346.73547 C 604.47993,347.41302 603.66881,347.77117 602.68263,347.63075 C 601.69646,347.49033 600.54531,346.80258 599.21341,345.39254 C 597.50698,343.58596 596.86893,343.04349 596.0799,342.93051 C 595.29087,342.81752 594.30383,343.15434 591.93921,343.15434 C 590.10015,343.15434 588.03555,344.59051 585.67222,346.51165 C 583.30888,348.43278 580.66055,350.86575 577.95039,352.66673 C 573.94749,355.32673 568.60801,361.58579 565.30448,364.41735 C 564.86517,364.79391 564.31913,365.13232 563.84965,365.53646 z"
         style="fill:#e9cb00;fill-opacity:1;fill-rule:evenodd;stroke:#000000;stroke-width:7;stroke-linecap:butt;stroke-linejoin:miter;stroke-miterlimit:4;stroke-dasharray:none;stroke-opacity:1" />
      <path
         id="path3283"
         d="M 603.01836,296.4876 C 603.10624,296.34718 603.15431,296.18036 603.24218,296.03996 C 602.7067,291.93345 603.13604,287.86097 604.24939,283.9536 C 605.36273,280.04622 607.11508,276.27936 609.39727,272.76253 C 611.67946,269.24571 614.48385,265.96112 617.45483,263.02632 C 620.42583,260.09149 623.56366,257.57775 626.74342,255.41639 C 634.08597,260.91251 639.38184,265.16336 643.53001,269.40522 C 647.67819,273.64707 650.66862,277.80676 653.49007,283.17023 C 656.13394,285.67638 657.60898,287.16421 658.41414,287.87047 C 659.21928,288.57674 659.42128,288.46845 659.75706,287.87047 C 660.09282,287.2725 660.53574,286.14361 661.77145,284.73698 C 663.00716,283.33034 664.98112,281.64444 668.48609,279.92481 C 680.47699,289.99513 690.93407,298.60666 701.05209,308.79775 C 706.11109,313.89333 711.11215,319.39296 716.16002,325.69627 C 721.20789,331.99958 726.37412,339.1108 731.71559,347.40693 C 731.71564,351.16033 732.10287,354.50167 733.95382,359.94092 C 734.8587,362.60003 737.44532,368.21888 739.10171,372.13919 C 740.90438,359.62843 745.52121,353.94957 749.28557,348.41412 C 756.18959,338.26163 760.25285,326.06058 760.25282,315.17666 C 760.25282,298.53381 758.1614,284.57145 755.55257,269.74095 C 754.81013,265.52039 761.95177,256.81493 761.81956,252.17098 C 761.74196,249.44631 759.12183,242.21404 749.73321,242.43476 C 741.48055,242.62882 737.55124,238.53257 736.63967,234.601 C 732.75513,217.84664 730.51061,224.07482 718.0625,221.05981 C 701.08056,216.94666 704.61243,211.0583 697.69476,197.22285 C 694.28634,190.40597 695.22718,181.3824 687.06326,180.10052 C 681.41909,179.2143 675.48253,179.02919 669.82901,179.54097 C 664.1755,180.05275 658.7412,181.26787 654.38535,183.0102 C 639.63742,188.90938 637.254,191.17976 623.16227,191.17968 C 612.88236,191.17968 603.46411,191.62811 593.9536,195.43229 C 591.8065,196.29112 588.68843,196.27499 585.4484,196.21566 C 584.41226,198.0988 583.566,200.12207 582.09107,201.8112 C 580.95413,203.85148 579.18401,206.13323 578.17421,207.96627 C 577.6693,208.88279 577.40547,209.6234 577.39083,210.20449 C 577.37618,210.78556 577.6167,211.15513 578.39803,211.21168 C 581.45016,211.43257 584.05883,212.17527 586.45559,213.89753 C 588.85233,215.61981 591.12737,218.33235 593.39405,222.51466 C 590.67162,227.3824 588.28021,231.7886 586.11986,235.27248 C 583.95951,238.75634 582.03976,241.35944 579.85286,242.8824 C 581.2466,246.5049 581.72297,249.49425 581.97916,252.28289 C 582.23535,255.07153 582.24718,257.61328 582.53871,260.45236 C 582.53871,261.88464 581.63179,263.10868 580.41241,264.25733 C 579.19304,265.40598 577.587,266.52233 576.1598,267.72655 C 574.73261,268.93079 573.53785,270.26824 572.9144,271.86725 C 572.29096,273.46626 572.28208,275.3536 573.47396,277.68661 C 574.72287,280.13127 576.24279,281.27763 577.95039,281.9392 C 579.65798,282.60078 581.59433,282.76261 583.65782,282.94641 C 585.72132,283.13019 587.94391,283.39003 590.26054,284.40124 C 592.57719,285.41244 594.95582,287.18855 597.42284,290.33251 C 599.99076,293.60503 601.37158,294.84335 603.01836,296.4876 z"
         style="fill:#edf700;fill-opacity:1;fill-rule:evenodd;stroke:#000000;stroke-width:7;stroke-linecap:butt;stroke-linejoin:miter;stroke-miterlimit:4;stroke-dasharray:none;stroke-opacity:1" />
      <path
         d="M 156.14013,745.30989 C 150.31597,739.67812 133.44408,739.50404 120.53292,739.50404 C 104.78435,739.50404 107.21667,760.05159 123.48127,760.05159 C 135.63294,760.05159 141.30886,760.49819 153.46053,760.49819 C 162.10731,760.49819 159.67597,748.72888 156.14013,745.30989 zM 220.73161,730.47706 C 220.68982,730.33253 220.66533,730.17159 220.6197,730.02941 C 214.49359,726.98123 209.93477,721.68576 203.83311,718.83834 C 209.59526,724.22918 207.83507,720.63257 203.27355,719.06217 C 199.06384,727.2118 195.0168,728.20819 200.58769,736.52023 C 204.53351,742.40741 200.53824,740.86376 185.81549,740.77284 C 174.77652,740.70465 169.77958,742.65258 177.5341,754.76167 C 182.08344,761.86572 209.35253,767.55093 210.32392,771.43635 C 211.58083,776.46403 210.71972,778.12485 210.88348,790.34925 C 193.07085,791.02305 193.01832,785.40023 178.65321,772.33163 C 171.56317,765.88147 166.61396,761.43007 163.54528,761.58822 C 152.58284,762.15278 142.74353,762.37156 125.83139,762.37159 C 115.69423,762.37159 114.35104,763.37678 106.47085,753.19493 C 99.485452,744.16916 100.90705,744.28164 89.460436,742.33959 C 85.12937,746.67065 77.119329,751.65768 64.616269,760.69294 C 73.091514,769.16817 89.963438,791.18594 101.09915,787.88722 C 111.89589,784.689 112.55819,782.89547 119.34057,789.67779 C 120.77317,791.11039 142.15957,811.73497 144.52046,809.37406 C 149.21691,804.67757 151.92427,800.88425 164.32865,787.10385 C 175.07923,793.33274 182.69342,796.03958 191.74675,801.42841 C 198.77256,805.61039 213.51662,803.38686 219.38868,810.38126 C 220.12483,811.2581 222.62227,812.3155 225.54377,813.29094 C 225.54681,813.24566 225.54055,813.11112 225.54377,813.0671 C 224.25517,799.55257 223.62636,791.53178 222.07455,782.85124 C 220.52272,774.17069 218.07437,764.82486 213.00977,748.49467 C 212.46888,746.75066 212.44353,744.62779 212.89786,742.4515 C 213.35221,740.2752 214.28749,737.99043 215.47182,735.96068 C 216.65613,733.93093 218.07541,732.22899 219.72441,730.9247 C 220.03873,730.67606 220.40265,730.68828 220.73161,730.47706 z M 175.75288,739.6365 C 186.97446,732.48809 206.45959,729.60413 182.32323,712.74565 C 178.21928,709.87916 176.54715,707.69982 165.56801,703.85143 C 154.90972,700.11544 152.87333,700.14909 142.60197,700.05147 C 124.4963,699.87944 108.5399,705.26078 113.38729,716.04596 C 120.74249,732.41095 132.15916,711.00596 139.11996,715.20196 C 157.58354,726.33178 159.73298,736.85596 175.75288,739.6365 z M 195.58889,815.04824 C 185.37913,809.01907 180.59064,800.02989 172.58122,800.84016 C 164.75857,801.6315 158.70246,819.43244 145.82282,819.46883 C 138.53951,819.48907 132.36203,819.86898 118.07282,812.72435 C 108.20112,807.78855 103.72308,804.89134 91.802686,801.91125 C 79.418988,798.81531 57.945582,806.24175 54.280382,813.57213 C 47.159687,827.81354 56.363315,847.7449 77.730871,847.7449 C 90.450084,847.7449 90.05587,834.11978 101.18892,832.65122 C 106.26745,831.98134 127.49222,844.74473 128.39392,846.32183 C 134.70099,857.35285 144.10813,861.57137 157.38908,861.3739 C 172.40914,861.15062 175.12113,856.59301 188.70061,846.22722 C 199.73922,837.80097 198.31407,837.61136 203.31738,832.96157 C 211.24657,825.59261 219.13399,818.94649 219.13399,813.17096 C 219.13399,804.67908 203.4553,805.30917 195.58889,815.04824 z"
         style="fill:#edf700;fill-rule:evenodd;stroke:#000000;stroke-width:7;stroke-linecap:butt;stroke-linejoin:miter;stroke-miterlimit:4;stroke-dasharray:none;stroke-opacity:1;fill-opacity:1"
         id="path2457" />
      <path
         d="M 427.65438,539.89324 C 426.59069,538.97682 425.748,537.70459 424.6328,536.87164 C 420.37812,533.69389 415.81492,531.10674 411.09162,528.92599 C 406.3683,526.74526 401.45301,525.02771 396.54324,523.55428 C 391.63345,522.08086 386.6971,520.80518 381.88293,519.74932 C 381.66498,519.33523 381.42941,518.93239 381.21147,518.51831 C 381.03675,518.57653 380.96705,518.86049 380.76383,518.85404 C 378.69604,518.78854 371.78617,518.90374 354.91247,511.80367 C 367.92075,502.56915 375.16537,497.81201 375.16829,494.56943 C 375.17495,487.27285 372.11197,489.84569 371.92289,485.28085 C 371.634,478.30518 377.60054,481.45863 377.40651,470.28481 C 377.22831,459.66759 363.1618,447.14502 364.76061,439.73321 C 371.91544,430.73635 374.8316,430.44366 387.03082,437.04736 C 393.17911,430.31972 401.25913,421.67882 409.97251,412.2032 C 415.08899,406.63911 409.94146,387.7508 391.61916,396.31188 C 379.29955,402.06817 380.31623,392.21273 380.31618,373.70593 C 380.31618,358.63628 371.75293,340.8042 361.06755,340.8042 C 349.77711,340.8042 336.37323,356.28583 328.38964,348.30221 C 322.13061,342.04313 324.53162,331.62757 316.30331,331.62753 C 307.49108,331.62753 303.36944,343.97036 301.30727,352.21909 C 290.90821,429.03197 288.68616,444.50376 271.53904,504.86521 C 269.49482,512.06133 266.89642,517.91456 264.48867,524.22575 C 264.57369,524.26725 264.74147,524.29619 264.82441,524.33766 C 268.8918,526.37134 283.10663,527.8274 287.54226,530.04509 C 284.00321,535.80476 281.99777,538.75773 281.05144,541.79572 C 280.10513,544.83371 280.21407,547.96388 280.93953,553.99398 C 282.17299,555.63862 284.03737,557.16193 286.53507,557.91086 C 287.78392,558.28533 289.18095,558.49808 290.67577,558.3585 C 292.17056,558.2189 293.79391,557.7507 295.48793,556.90365 C 298.66665,554.58204 301.59259,551.83526 304.66459,549.29373 C 307.7366,546.75219 310.95512,544.38538 314.73654,543.02673 C 314.73654,543.88531 313.98358,547.48826 313.72935,550.86047 C 313.60226,552.54659 313.66267,554.19555 313.95317,555.44881 C 314.24368,556.70207 314.71481,557.57407 315.74375,557.68702 C 317.83771,557.87675 320.05548,558.60444 322.23457,559.4776 C 322.7629,558.99762 323.27299,558.50273 323.80132,558.02277 C 326.08661,557.01417 330.51473,554.61011 333.98518,552.87487 C 337.10339,551.31575 339.77388,548.98865 341.81892,546.94361 C 343.97399,544.78843 344.00671,543.39273 347.41445,541.34807 C 348.97927,540.40921 350.56507,539.9162 352.0028,539.33369 C 353.44052,538.75118 354.67332,538.0112 355.69585,536.64782 C 356.91566,535.02131 359.0008,535.31801 360.84373,534.85726 C 362.97476,534.3246 365.38577,534.40961 367.78219,534.40961 C 369.20867,534.40965 370.1119,535.10858 371.02761,535.97636 C 371.9433,536.84414 372.87704,537.85231 374.27301,538.55031 C 375.72115,539.27438 376.39434,540.17081 376.62314,541.12425 C 376.85194,542.07769 376.57407,543.12493 376.06359,544.14583 C 374.66306,546.94682 374.27301,549.26318 374.27301,552.42723 C 374.27305,553.46361 374.90157,554.54203 375.72786,555.44881 C 376.55413,556.3556 377.54971,557.14313 378.41371,557.57511 C 380.55369,558.64513 384.38265,558.33995 386.69509,558.91805 C 387.21851,564.62061 387.39378,559.67496 388.14993,566.8637 C 390.21879,566.86359 396.41871,565.53338 397.43852,564.51357 C 398.64429,563.30785 399.84336,560.4898 400.23628,558.91805 C 400.99476,555.88429 402.4824,553.87418 404.82462,551.53195 C 405.89294,550.46358 407.06713,549.66376 407.95811,548.73417 C 408.8491,547.80459 409.41296,546.73962 409.41296,545.04113 C 409.41296,543.72062 410.57568,542.54497 411.87499,541.45998 C 413.1743,540.37501 414.6314,539.37504 415.45612,538.55031 C 416.17848,537.82799 417.20841,537.59414 418.36581,537.54311 C 419.52319,537.49207 420.81355,537.65503 421.94694,537.65503 C 423.2243,539.25013 425.68633,539.34292 427.65438,539.89324 z M 310.21519,329.23823 C 315.12317,334.65031 331.72101,313.43014 337.64181,306.45387 C 344.04289,298.91173 346.93634,285.3063 341.47965,273.27048 C 336.57753,262.4578 326.89593,258.9509 322.99599,269.2619 C 318.91736,280.04529 308.15405,297.78186 302.21592,309.6581 C 297.46181,319.16634 304.43519,322.86459 310.21519,329.23823 z"
         style="fill:#e9cb00;fill-opacity:1;fill-rule:evenodd;stroke:#000000;stroke-width:7;stroke-linecap:butt;stroke-linejoin:miter;stroke-miterlimit:4;stroke-dasharray:none;stroke-opacity:1"
         id="path3295" />
      <path
         d="M 480.81194,370.90817 C 481.50636,370.40352 481.97019,369.8687 482.82633,369.56523 C 483.62776,369.28118 484.5374,369.12534 485.28837,369.34141 C 486.03934,369.5575 486.67613,370.10258 487.19085,371.13199 C 487.34141,371.43313 487.40042,371.78917 487.63849,372.02728 C 488.23221,372.62099 489.11848,373.51054 490.21244,374.26548 C 491.30641,375.02043 492.6633,375.72032 494.0174,375.72032 C 496.95902,375.72032 499.70253,376.60752 502.5226,377.5109 C 505.34268,378.41427 508.19729,379.3015 511.13973,379.30147 C 513.0161,379.30147 515.44483,379.34591 517.74246,379.07765 C 520.04008,378.80938 522.20516,378.24861 523.78564,377.06326 C 524.3879,376.61157 524.97389,376.17206 525.5762,375.72032 C 526.6649,374.90383 528.62425,373.80116 530.61219,373.03447 C 532.60011,372.26778 534.6353,371.75757 535.98388,372.02728 C 539.46705,372.72391 536.47776,372.27416 538.66975,373.3702 C 540.21587,374.14326 542.96855,374.66819 545.83203,374.71313 C 548.69551,374.75807 551.64809,374.32307 553.55386,373.3702 C 557.11896,371.58766 561.76878,367.44793 565.30448,364.41735 C 568.60801,361.58579 573.94749,355.32673 577.95039,352.66673 C 580.66055,350.86575 583.30888,348.43278 585.67222,346.51165 C 588.03555,344.59051 590.10015,343.15434 591.93921,343.15434 C 594.30383,343.15434 595.29087,342.81752 596.0799,342.93051 C 596.86893,343.04349 597.50698,343.58596 599.21341,345.39254 C 600.54531,346.80258 601.69646,347.49033 602.68263,347.63075 C 603.66881,347.77117 604.47993,347.41302 605.36849,346.73547 C 607.14562,345.38041 608.98419,342.83284 611.85931,340.91611 C 615.81765,338.27721 617.48779,336.68618 618.57395,335.09676 C 619.66011,333.50735 620.18509,331.91295 621.81935,329.16549 C 620.69015,327.13459 620.43008,327.36412 619.35732,327.1511 C 618.28455,326.9381 616.37623,326.23144 611.85931,322.33894 C 609.89201,320.64364 609.02003,319.00709 608.39007,317.19106 C 607.76012,315.37502 607.42077,313.3688 606.4876,311.03598 C 605.56718,308.73488 606.14953,306.68403 606.59951,304.76898 C 606.82447,303.81146 607.04324,302.99173 606.93524,302.08312 C 606.82722,301.17452 606.48368,300.17674 605.59231,299.28536 C 602.51035,296.20339 601.16438,295.10064 597.42284,290.33251 C 594.95582,287.18855 592.57719,285.41244 590.26054,284.40124 C 587.94391,283.39003 585.72132,283.13019 583.65782,282.94641 C 581.59433,282.76261 579.65798,282.60078 577.95039,281.9392 C 576.24279,281.27763 574.72287,280.13127 573.47396,277.68661 C 572.28208,275.3536 572.29096,273.46626 572.9144,271.86725 C 573.53785,270.26824 574.73261,268.93079 576.1598,267.72655 C 577.587,266.52233 579.19304,265.40598 580.41241,264.25733 C 581.63179,263.10868 582.53871,261.88464 582.53871,260.45236 C 582.24718,257.61328 582.23535,255.07153 581.97916,252.28289 C 581.72297,249.49425 581.2466,246.5049 579.85286,242.8824 C 582.03976,241.35944 583.95951,238.75634 586.11986,235.27248 C 588.28021,231.7886 590.67162,227.3824 593.39405,222.51466 C 591.12737,218.33235 588.85233,215.61981 586.45559,213.89753 C 584.05883,212.17527 581.45016,211.43257 578.39803,211.21168 C 577.6167,211.15513 577.37618,210.78556 577.39083,210.20449 C 577.40547,209.6234 577.6693,208.88279 578.17421,207.96627 C 579.18401,206.13323 580.95413,203.85148 582.09107,201.8112 C 583.566,200.12207 584.41226,198.0988 585.4484,196.21566 C 572.99107,195.98757 554.11485,191.32733 538.33402,197.6705 C 526.71891,202.33923 520.99643,206.66664 506.32757,211.32359 C 492.0375,215.86029 487.47777,215.65899 473.98539,225.87197 C 465.51786,232.28143 441.66742,249.99615 437.05489,259.22135 C 432.71858,267.89395 431.12362,273.09326 431.12362,285.85608 C 431.12362,299.48311 423.6044,311.6375 429.22113,333.53001 C 431.7514,343.3923 431.58824,349.71709 423.28988,357.03125 C 428.00975,364.55035 438.24987,369.5652 446.34347,369.56523 C 454.50241,369.56523 464.50507,377.36801 471.18763,371.2439 C 476.11789,366.72564 480.3813,367.26131 480.81194,370.90817 z M 345.64556,240.20842 C 330.67607,252.2609 324.86438,248.22789 330.7391,259.97736 C 334.39601,267.2912 355.85034,251.42066 358.48932,249.85247 C 383.37445,235.06466 382.27776,232.69777 377.15794,225.50767 C 372.0387,218.31839 353.02653,234.26573 345.64556,240.20842 z M 381.03549,214.23782 C 387.44753,229.25351 421.32373,204.48094 440.62987,198.66627 C 471.33284,189.41904 460.15518,173.05581 434.80567,186.53712 C 410.99685,199.19903 376.29506,203.13668 381.03549,214.23782 z M 462.38963,181.89486 C 477.51453,204.90214 476.25627,183.87261 519.98421,185.3372 C 527.78909,185.71607 534.89633,185.32537 541.58665,181.98019 C 544.58504,180.48102 529.37253,167.56037 522.82886,169.13199 C 471.89748,181.36445 460.76135,168.47704 462.38963,181.89486 z M 552.07109,181.55328 C 576.36447,180.45678 585.00816,176.13552 595.84223,171.94072 C 619.4244,162.81003 587.99888,162.40682 577.61472,161.91919 C 562.88922,161.2277 554.53363,170.04207 552.07109,181.55328 z"
         style="fill:#fbb800;fill-opacity:1;fill-rule:evenodd;stroke:#000000;stroke-width:7;stroke-linecap:butt;stroke-linejoin:miter;stroke-miterlimit:4;stroke-dasharray:none;stroke-opacity:1"
         id="path2453" />
    </g>
  </g>
</svg>
